PathFileType	4	(X/Y/Z)	C:\Users\86182\Documents\cortex\Trimmed_M4_L16.trc
DataRate	CameraRate	NumFrames	NumMarkers	Units	OrigDataRate	OrigDataStartFrame	OrigNumFrames
100.00	100.00	       126	2	mm	100.00	721	       901
Frame#	Time	gripper			box			
		X1	Y1	Z1	X2	Y2	Z2	

721	7.200	274.61325	150.45624	292.45880	277.00751	147.40340	157.23698	
722	7.210	274.61490	150.45735	292.45749	277.00577	147.40407	157.23743	
723	7.220	274.61642	150.45839	292.45624	277.00397	147.40479	157.23788	
724	7.230	274.61761	150.45918	292.45529	277.00211	147.40550	157.23833	
725	7.240	274.61832	150.45967	292.45471	277.00031	147.40620	157.23877	
726	7.250	274.61859	150.45982	292.45453	276.99884	147.40678	157.23914	
727	7.260	274.61838	150.45969	292.45471	276.99805	147.40709	157.23935	
728	7.270	274.61774	150.45924	292.45526	276.99811	147.40707	157.23935	
729	7.280	274.61679	150.45859	292.45612	276.99884	147.40678	157.23917	
730	7.290	274.61563	150.45779	292.45712	276.99988	147.40637	157.23889	
731	7.300	274.61453	150.45703	292.45810	277.00079	147.40602	157.23868	
732	7.310	274.61377	150.45650	292.45877	277.00134	147.40579	157.23853	
733	7.320	274.61353	150.45634	292.45898	277.00168	147.40567	157.23843	
734	7.330	274.61386	150.45657	292.45868	277.00214	147.40549	157.23834	
735	7.340	274.61469	150.45714	292.45798	277.00302	147.40514	157.23810	
736	7.350	274.61569	150.45784	292.45709	277.00433	147.40462	157.23778	
737	7.360	274.61667	150.45850	292.45624	277.00565	147.40411	157.23746	
738	7.370	274.61737	150.45898	292.45563	277.00653	147.40376	157.23721	
739	7.380	274.61771	150.45923	292.45532	277.00681	147.40367	157.23715	
740	7.390	274.61768	150.45921	292.45532	277.00653	147.40376	157.23721	
741	7.400	274.61725	150.45891	292.45569	277.00613	147.40393	157.23730	
742	7.410	274.61642	150.45834	292.45642	277.00595	147.40401	157.23735	
743	7.420	274.61523	150.45752	292.45746	277.00610	147.40395	157.23730	
744	7.430	274.61380	150.45654	292.45868	277.00641	147.40382	157.23724	
745	7.440	274.61252	150.45564	292.45984	277.00668	147.40372	157.23718	
746	7.450	274.61169	150.45508	292.46054	277.00687	147.40364	157.23712	
747	7.460	274.61157	150.45500	292.46063	277.00708	147.40355	157.23706	
748	7.470	274.61218	150.45541	292.46014	277.00739	147.40344	157.23700	
749	7.480	274.61331	150.45619	292.45917	277.00772	147.40331	157.23691	
750	7.490	274.61475	150.45718	292.45792	277.00809	147.40315	157.23682	
751	7.500	274.61621	150.45821	292.45663	277.00815	147.40312	157.23680	
752	7.510	274.61749	150.45908	292.45554	277.00757	147.40337	157.23697	
753	7.520	274.61841	150.45972	292.45477	277.00607	147.40395	157.23734	
754	7.530	274.61893	150.46005	292.45435	277.00385	147.40482	157.23788	
755	7.540	274.61899	150.46010	292.45428	277.00128	147.40582	157.23854	
756	7.550	274.61859	150.45981	292.45468	276.99884	147.40678	157.23917	
757	7.560	274.61768	150.45918	292.45544	276.99680	147.40758	157.23969	
758	7.570	274.61627	150.45824	292.45660	276.99524	147.40819	157.24005	
759	7.580	274.61444	150.45700	292.45807	276.99429	147.40857	157.24030	
760	7.590	274.61234	150.45560	292.45966	276.99405	147.40866	157.24036	
761	7.600	274.61020	150.45421	292.46109	276.99454	147.40846	157.24020	
762	7.610	274.60840	150.45308	292.46213	276.99539	147.40814	157.23999	
763	7.620	274.60712	150.45233	292.46259	276.99591	147.40793	157.23987	
764	7.630	274.60660	150.45212	292.46240	276.99588	147.40794	157.23990	
765	7.640	274.60703	150.45250	292.46161	276.99561	147.40805	157.23996	
766	7.650	274.60843	150.45348	292.46027	276.99570	147.40800	157.23993	
767	7.660	274.61053	150.45490	292.45868	276.99670	147.40761	157.23969	
768	7.670	274.61292	150.45642	292.45709	276.99844	147.40694	157.23923	
769	7.680	274.61511	150.45779	292.45584	277.00037	147.40617	157.23875	
770	7.690	274.61679	150.45883	292.45499	277.00204	147.40552	157.23834	
771	7.700	274.61786	150.45947	292.45453	277.00317	147.40508	157.23804	
772	7.710	274.61832	150.45970	292.45453	277.00357	147.40492	157.23795	
773	7.720	274.61819	150.45958	292.45483	277.00299	147.40515	157.23810	
774	7.730	274.61765	150.45915	292.45544	277.00137	147.40578	157.23851	
775	7.740	274.61676	150.45854	292.45630	276.99881	147.40678	157.23917	
776	7.750	274.61578	150.45787	292.45715	276.99564	147.40802	157.23999	
777	7.760	274.61493	150.45729	292.45789	276.99219	147.40936	157.24084	
778	7.770	274.61438	150.45691	292.45831	276.98871	147.41072	157.24174	
779	7.780	274.61423	150.45680	292.45844	276.98547	147.41199	157.24255	
780	7.790	274.61456	150.45703	292.45813	276.98300	147.41295	157.24319	
781	7.800	274.61530	150.45753	292.45746	276.98178	147.41345	157.24350	
782	7.810	274.61621	150.45818	292.45667	276.98196	147.41339	157.24341	
783	7.820	274.61710	150.45879	292.45590	276.98352	147.41283	157.24298	
784	7.830	274.61783	150.45929	292.45526	276.98624	147.41182	157.24225	
785	7.840	274.61832	150.45963	292.45486	276.98965	147.41058	157.24133	
786	7.850	274.61853	150.45976	292.45465	276.99292	147.40939	157.24045	
787	7.860	274.61838	150.45969	292.45471	276.99533	147.40851	157.23978	
788	7.870	274.61789	150.45940	292.45496	276.99683	147.40796	157.23938	
789	7.880	274.61710	150.45889	292.45541	276.99768	147.40759	157.23920	
790	7.890	274.61597	150.45819	292.45599	276.99829	147.40729	157.23909	
791	7.900	274.61465	150.45740	292.45667	276.99899	147.40694	157.23898	
792	7.910	274.61337	150.45663	292.45728	276.99994	147.40648	157.23880	
793	7.920	274.61255	150.45615	292.45758	277.00079	147.40610	157.23862	
794	7.930	274.61252	150.45616	292.45743	277.00098	147.40596	157.23859	
795	7.940	274.61328	150.45667	292.45694	277.00024	147.40623	157.23880	
796	7.950	274.61456	150.45744	292.45624	276.99878	147.40678	157.23918	
797	7.960	274.61594	150.45828	292.45557	276.99716	147.40741	157.23959	
798	7.970	274.61713	150.45900	292.45502	276.99579	147.40796	157.23993	
799	7.980	274.61798	150.45952	292.45462	276.99469	147.40839	157.24020	
800	7.990	274.61847	150.45979	292.45447	276.99380	147.40874	157.24042	
801	8.000	274.61856	150.45982	292.45456	276.99301	147.40904	157.24063	
802	8.010	274.61823	150.45958	292.45493	276.99234	147.40932	157.24078	
803	8.020	274.61752	150.45909	292.45557	276.99210	147.40941	157.24084	
804	8.030	274.61655	150.45842	292.45642	276.99265	147.40919	157.24072	
805	8.040	274.61542	150.45764	292.45740	276.99405	147.40865	157.24036	
806	8.050	274.61438	150.45692	292.45825	276.99619	147.40782	157.23981	
807	8.060	274.61368	150.45645	292.45886	276.99893	147.40675	157.23912	
808	8.070	274.61346	150.45630	292.45901	277.00214	147.40549	157.23831	
809	8.080	274.61371	150.45648	292.45877	277.00549	147.40417	157.23746	
810	8.090	274.61435	150.45691	292.45825	277.00842	147.40303	157.23671	
811	8.100	274.61517	150.45747	292.45752	277.01041	147.40225	157.23621	
812	8.110	274.61609	150.45811	292.45670	277.01102	147.40202	157.23607	
813	8.120	274.61697	150.45872	292.45593	277.00998	147.40242	157.23633	
814	8.130	274.61768	150.45920	292.45535	277.00735	147.40344	157.23700	
815	8.140	274.61810	150.45949	292.45499	277.00345	147.40498	157.23798	
816	8.150	274.61826	150.45959	292.45486	276.99884	147.40678	157.23917	
817	8.160	274.61816	150.45953	292.45496	276.99402	147.40866	157.24037	
818	8.170	274.61792	150.45937	292.45514	276.98935	147.41049	157.24155	
819	8.180	274.61761	150.45917	292.45538	276.98514	147.41214	157.24261	
820	8.190	274.61728	150.45895	292.45560	276.98178	147.41344	157.24347	
821	8.200	274.61691	150.45871	292.45584	276.97958	147.41429	157.24402	
822	8.210	274.61639	150.45839	292.45612	276.97867	147.41466	157.24425	
823	8.220	274.61584	150.45804	292.45642	276.97888	147.41457	157.24420	
824	8.230	274.61533	150.45775	292.45667	276.97998	147.41415	157.24391	
825	8.240	274.61511	150.45763	292.45667	276.98175	147.41347	157.24347	
826	8.250	274.61530	150.45775	292.45648	276.98428	147.41246	157.24283	
827	8.260	274.61581	150.45811	292.45605	276.98776	147.41110	157.24194	
828	8.270	274.61658	150.45859	292.45557	276.99203	147.40944	157.24086	
829	8.280	274.61731	150.45906	292.45514	276.99649	147.40770	157.23975	
830	8.290	274.61792	150.45943	292.45480	277.00027	147.40622	157.23880	
831	8.300	274.61829	150.45966	292.45462	277.00281	147.40523	157.23816	
832	8.310	274.61838	150.45972	292.45465	277.00394	147.40480	157.23788	
833	8.320	274.61816	150.45955	292.45490	277.00378	147.40485	157.23792	
834	8.330	274.61758	150.45912	292.45544	277.00262	147.40530	157.23819	
835	8.340	274.61661	150.45847	292.45630	277.00064	147.40608	157.23871	
836	8.350	274.61533	150.45758	292.45740	276.99805	147.40709	157.23935	
837	8.360	274.61395	150.45663	292.45862	276.99521	147.40820	157.24005	
838	8.370	274.61282	150.45587	292.45956	276.99240	147.40929	157.24078	
839	8.380	274.61237	150.45554	292.45996	276.99005	147.41020	157.24136	
840	8.390	274.61270	150.45578	292.45966	276.98856	147.41080	157.24176	
841	8.400	274.61368	150.45645	292.45880	276.98822	147.41093	157.24185	
842	8.410	274.61496	150.45734	292.45770	276.98911	147.41058	157.24161	
843	8.420	274.61627	150.45824	292.45657	276.99078	147.40994	157.24120	
844	8.430	274.61740	150.45903	292.45557	276.99228	147.40935	157.24081	
845	8.440	274.61826	150.45961	292.45483	276.99289	147.40912	157.24066	
846	8.450	274.61877	150.45996	292.45438	276.99228	147.40935	157.24081	
